<?xml version="1.0" encoding="utf-8"?>
<!-- Generator: Adobe Illustrator 24.3.0, SVG Export Plug-In . SVG Version: 6.00 Build 0)  -->
<svg version="1.1" id="Layer_1" xmlns="http://www.w3.org/2000/svg" xmlns:xlink="http://www.w3.org/1999/xlink" x="0px" y="0px"
	 viewBox="0 0 100 99.3" style="enable-background:new 0 0 100 99.3;" xml:space="preserve">
<style type="text/css">
	.st0{fill:#75487E;}
	.st1{fill:#9FC64E;}
</style>
<path class="st0" d="M85.6,30.6c-2.3,1.8-5.8,3.7-11.2,4.7c-1.1,0.2-2.1-0.4-2.5-1.4c-1.6-5-1-9.3-0.1-12.3
	c-2.4,0.3-5.7,0.2-9.4-1.4c-0.8,0.6-1.5,1.2-2.2,1.9c-8.2,8-10.8,11.8-20.5,18c-7.3,4.7-6.8,4.6-27,13.9
	c-23.8,13.3-4.2,35.9-4.2,35.9C19.4,101,35.3,98,35.3,98s16.3-0.9,31.2-14.7c13.2-12.2,19.8-32.7,24.1-45.4
	C89,36.4,86.7,33.9,85.6,30.6z M65.2,28.2c-0.8,1-20.4,25.7-48.7,33.7C16.4,62,16.2,62,16,62c-0.9,0-1.7-0.6-1.9-1.5
	c-0.3-1.1,0.3-2.2,1.4-2.5c27-7.7,46.4-32.1,46.6-32.4c0.7-0.9,1.9-1,2.8-0.3S65.9,27.3,65.2,28.2z"/>
<path class="st1" d="M61.7,17.2c0,0,6.6-8.5,14.6-8.8C87,8,89,1.2,89,1.2l6.5,3.6c0,0-5,4.6,0.4,14.4s-2.3,18.5-2.3,18.5
	s-8.1-5.7-6-13.3c0,0-1.1,6.5-13.5,8.8c-2.8-8.5,1.8-15,1.8-15S69.6,21.7,61.7,17.2z"/>
</svg>
