<?xml version="1.0" encoding="utf-8"?>
<!-- Generator: Adobe Illustrator 24.3.0, SVG Export Plug-In . SVG Version: 6.00 Build 0)  -->
<svg version="1.1" id="Layer_1" xmlns="http://www.w3.org/2000/svg" xmlns:xlink="http://www.w3.org/1999/xlink" x="0px" y="0px"
	 viewBox="0 0 56.7 56.7" style="enable-background:new 0 0 56.7 56.7;" xml:space="preserve">
<style type="text/css">
	.st0{fill:#4DA932;}
</style>
<path class="st0" d="M48.3,3.3H8.4c-2.8,0-5.1,2.3-5.1,5.1v39.9c0,2.8,2.3,5.1,5.1,5.1h39.9c2.8,0,5.1-2.3,5.1-5.1V8.4
	C53.4,5.6,51.1,3.3,48.3,3.3z M23.9,40.1l4.2,4.2l-3.8,3.8l-6-6l-7.5,7.5L7.2,46l7.5-7.5l-6-6l3.8-3.8l4.2,4.2L37.2,7.2l11.3,1
	l1,11.3L23.9,40.1z"/>
</svg>
