<?xml version="1.0" encoding="utf-8"?>
<!-- Generator: Adobe Illustrator 24.3.0, SVG Export Plug-In . SVG Version: 6.00 Build 0)  -->
<svg version="1.1" id="Layer_1" xmlns="http://www.w3.org/2000/svg" xmlns:xlink="http://www.w3.org/1999/xlink" x="0px" y="0px"
	 viewBox="0 0 283.5 283.5" style="enable-background:new 0 0 283.5 283.5;" xml:space="preserve">
<style type="text/css">
	.st0{fill:#8651F6;}
</style>
<g>
	<path class="st0" d="M250.6,17.5c0-0.8,0-1.7,0-2.8c-1.1,0-1.8,0-2.5,0c-56,0-112,0-168,0c-1.5,0-2.5,0.4-3.5,1.5
		C62.5,30.2,48.5,44.3,34.3,58.4c-1,1-1.5,2-1.5,3.5c0,53.1,0,106.2,0,159.3c0,0.7,0.1,1.4,0.2,2.3c18.1,0,36,0,54.2,0
		c0,15.1,0,29.9,0,45.4c1-1,1.6-1.6,2.2-2.2c13.9-13.9,27.9-27.8,41.7-41.8c1.1-1.1,2.2-1.5,3.7-1.5c10.6,0.1,21.2,0,31.8,0.1
		c1.7,0,2.9-0.4,4.1-1.7c26-26.1,52.1-52.2,78.2-78.2c1.2-1.2,1.7-2.4,1.7-4.1C250.6,98.8,250.6,58.2,250.6,17.5z M231,134
		c-11.2,11.1-22.3,22.3-33.4,33.4c-1,1-2.1,1.4-3.5,1.4c-10.7,0-21.3,0-32-0.1c-1.5,0-2.6,0.5-3.7,1.6c-9.3,9.4-18.6,18.7-27.9,28
		c-0.6,0.6-1.2,1.2-2.3,2.2c0-2.5-0.1-4.5-0.1-6.5c0-2.1,0-4.2,0-6.4c0-2,0-4.1,0-6.1c0-2.1,0-4.2,0-6.4c0-2,0-4.1,0-6.3
		c-13.6,0-27.1,0-40.7,0c0-45.4,0-90.5,0-135.6c1.8-0.5,142.5-0.6,144.9-0.1c0,0.7,0.1,1.5,0.1,2.2c0,31.7,0,63.4,0,95
		C232.5,131.9,232.1,132.9,231,134z"/>
</g>
<g>
	<path class="st0" d="M139.9,118.9c-2.2,0-4.2-0.8-5.8-2.4c-1.6-1.6-2.8-3.9-3.7-6.8c-0.8-3-1.3-6.4-1.3-10.5V64.8h5.2v34.7
		c0,3.2,0.5,5.8,1.4,7.6c1,1.9,2.3,2.8,4.1,2.8s3.2-0.9,4.1-2.8c1-1.9,1.4-4.4,1.4-7.6V64.8h5.2v34.4c0,4-0.4,7.5-1.3,10.5
		c-0.8,3-2.1,5.2-3.7,6.8C144.1,118.1,142.2,118.9,139.9,118.9z"/>
	<path class="st0" d="M157.9,117.8l-3.6-53h5.1l2.7,46h0.7l3.4-46h8.9l3.4,46h0.7l2.7-46h5.1l-3.6,53h-8.9L171,70.7h-0.7l-3.5,47.1
		H157.9z"/>
	<path class="st0" d="M201.4,118.9c-2.2,0-4.2-0.8-5.8-2.4c-1.6-1.6-2.8-3.9-3.7-6.8c-0.8-3-1.3-6.4-1.3-10.5V64.8h5.2v34.7
		c0,3.2,0.5,5.8,1.4,7.6c1,1.9,2.3,2.8,4.1,2.8s3.2-0.9,4.1-2.8c1-1.9,1.4-4.4,1.4-7.6V64.8h5.2v34.4c0,4-0.4,7.5-1.3,10.5
		c-0.8,3-2.1,5.2-3.7,6.8C205.6,118.1,203.7,118.9,201.4,118.9z"/>
</g>
</svg>
