<?xml version="1.0" encoding="utf-8"?>
<!-- Generator: Adobe Illustrator 24.3.0, SVG Export Plug-In . SVG Version: 6.00 Build 0)  -->
<svg version="1.1" id="Layer_1" xmlns="http://www.w3.org/2000/svg" xmlns:xlink="http://www.w3.org/1999/xlink" x="0px" y="0px"
	 viewBox="0 0 56.7 56.7" style="enable-background:new 0 0 56.7 56.7;" xml:space="preserve">
<style type="text/css">
	.st0{fill:#8651F6;}
</style>
<g>
	<path class="st0" d="M48.3,3.3H8.4c-2.8,0-5.1,2.3-5.1,5.1v39.9c0,2.8,2.3,5.1,5.1,5.1h39.9c2.8,0,5.1-2.3,5.1-5.1V8.4
		C53.4,5.6,51.1,3.3,48.3,3.3z M43.4,43.4l-15,6.2l-15-6.2l-6.2-15l6.2-15l15-6.2l15,6.2l6.2,15L43.4,43.4z"/>
	<polygon class="st0" points="24.7,29.7 20.3,25.3 15.8,29.7 24.7,38.6 40.9,22.5 36.4,18.1 	"/>
</g>
</svg>
